<svg width="24" height="28" viewBox="0 0 24 28" fill="none" xmlns="http://www.w3.org/2000/svg">
<path d="M23.25 22.0607V23.3107H0.75V22.0607L3.25 19.5607V12.0607C3.25 8.18567 5.7875 4.77317 9.5 3.67317C9.5 3.54817 9.5 3.43567 9.5 3.31067C9.5 2.64763 9.76339 2.01174 10.2322 1.5429C10.7011 1.07406 11.337 0.810669 12 0.810669C12.663 0.810669 13.2989 1.07406 13.7678 1.5429C14.2366 2.01174 14.5 2.64763 14.5 3.31067C14.5 3.43567 14.5 3.54817 14.5 3.67317C18.2125 4.77317 20.75 8.18567 20.75 12.0607V19.5607L23.25 22.0607ZM14.5 24.5607C14.5 25.2237 14.2366 25.8596 13.7678 26.3284C13.2989 26.7973 12.663 27.0607 12 27.0607C11.337 27.0607 10.7011 26.7973 10.2322 26.3284C9.76339 25.8596 9.5 25.2237 9.5 24.5607" fill="#ADB5BD"/>
</svg>
