<svg width="54" height="53" viewBox="0 0 54 53" fill="none" xmlns="http://www.w3.org/2000/svg">
<path d="M27.0006 0.333008C23.4987 0.333008 20.0311 1.02276 16.7958 2.36289C13.5604 3.70301 10.6207 5.66726 8.14447 8.14349C3.1435 13.1445 0.333984 19.9272 0.333984 26.9997C0.333984 38.7863 7.98732 48.7863 18.574 52.333C19.9073 52.5463 20.334 51.7197 20.334 50.9997C20.334 50.3863 20.334 48.7063 20.334 46.493C12.9473 48.093 11.374 42.9197 11.374 42.9197C10.1473 39.8263 8.41398 38.9997 8.41398 38.9997C5.98732 37.3463 8.60065 37.3997 8.60065 37.3997C11.2673 37.5863 12.6807 40.1463 12.6807 40.1463C15.0007 44.1997 18.9207 42.9997 20.4406 42.3597C20.6806 40.6263 21.374 39.453 22.1206 38.7863C16.2007 38.1197 9.98732 35.8263 9.98732 25.6663C9.98732 22.7063 11.0007 20.333 12.734 18.4397C12.4673 17.773 11.534 14.9997 13.0007 11.3997C13.0007 11.3997 15.2407 10.6797 20.334 14.1197C22.4406 13.533 24.734 13.2397 27.0006 13.2397C29.2673 13.2397 31.5606 13.533 33.6673 14.1197C38.7606 10.6797 41.0006 11.3997 41.0006 11.3997C42.4673 14.9997 41.534 17.773 41.2673 18.4397C43.0006 20.333 44.014 22.7063 44.014 25.6663C44.014 35.853 37.774 38.093 31.8273 38.7597C32.7873 39.5863 33.6673 41.213 33.6673 43.693C33.6673 47.2663 33.6673 50.1463 33.6673 50.9997C33.6673 51.7197 34.094 52.573 35.454 52.333C46.0406 48.7597 53.6673 38.7863 53.6673 26.9997C53.6673 23.4978 52.9776 20.0301 51.6374 16.7948C50.2973 13.5594 48.3331 10.6197 45.8568 8.14349C43.3806 5.66726 40.4409 3.70301 37.2055 2.36289C33.9702 1.02276 30.5026 0.333008 27.0006 0.333008Z" fill="#6B7280"/>
</svg>
