<svg width="73" height="23" viewBox="0 0 73 23" fill="none" xmlns="http://www.w3.org/2000/svg">
<path d="M6.168 18.3107C5.048 18.3107 4.072 18.0867 3.24 17.6387C2.408 17.1907 1.76 16.6067 1.296 15.8867C0.832 15.1507 0.6 14.3667 0.6 13.5347C0.6 12.6867 0.832 12.0547 1.296 11.6387C1.76 11.2227 2.264 11.0147 2.808 11.0147C3.368 11.0147 3.784 11.1267 4.056 11.3507C4.328 11.5587 4.528 11.8067 4.656 12.0947C4.8 12.3667 4.952 12.6147 5.112 12.8387C5.288 13.0467 5.552 13.1507 5.904 13.1507C6.544 13.1507 6.912 12.7667 7.008 11.9987C7.12 11.2307 7.168 10.1187 7.152 8.66267C7.152 8.11867 7.152 7.63067 7.152 7.19867C6.32 7.16667 5.56 7.06267 4.872 6.88667C4.184 6.71067 3.64 6.43067 3.24 6.04667C2.84 5.64667 2.64 5.08667 2.64 4.36667C2.64 3.69467 2.816 3.16667 3.168 2.78267C3.536 2.38267 4.032 2.09467 4.656 1.91867C5.28 1.74267 5.984 1.63067 6.768 1.58267C7.552 1.53467 8.36 1.51067 9.192 1.51067C10.04 1.51067 10.848 1.53467 11.616 1.58267C12.4 1.63067 13.096 1.74267 13.704 1.91867C14.328 2.09467 14.816 2.38267 15.168 2.78267C15.536 3.16667 15.72 3.69467 15.72 4.36667C15.72 5.23067 15.432 5.86267 14.856 6.26267C14.28 6.66267 13.544 6.93467 12.648 7.07867C12.68 7.49467 12.696 7.95867 12.696 8.47067C12.712 8.98267 12.72 9.54267 12.72 10.1507C12.72 12.8387 12.184 14.8707 11.112 16.2467C10.056 17.6227 8.408 18.3107 6.168 18.3107ZM20.0899 18.3107C18.9699 18.3107 17.9939 18.0867 17.1619 17.6387C16.3299 17.1907 15.6819 16.6067 15.2179 15.8867C14.7539 15.1507 14.5219 14.3667 14.5219 13.5347C14.5219 12.6867 14.7539 12.0547 15.2179 11.6387C15.6819 11.2227 16.1859 11.0147 16.7299 11.0147C17.2899 11.0147 17.7059 11.1267 17.9779 11.3507C18.2499 11.5587 18.4499 11.8067 18.5779 12.0947C18.7219 12.3667 18.8739 12.6147 19.0339 12.8387C19.2099 13.0467 19.4739 13.1507 19.8259 13.1507C20.4659 13.1507 20.8339 12.7667 20.9299 11.9987C21.0419 11.2307 21.0899 10.1187 21.0739 8.66267C21.0739 8.11867 21.0739 7.63067 21.0739 7.19867C20.2419 7.16667 19.4819 7.06267 18.7939 6.88667C18.1059 6.71067 17.5619 6.43067 17.1619 6.04667C16.7619 5.64667 16.5619 5.08667 16.5619 4.36667C16.5619 3.69467 16.7379 3.16667 17.0899 2.78267C17.4579 2.38267 17.9539 2.09467 18.5779 1.91867C19.2019 1.74267 19.9059 1.63067 20.6899 1.58267C21.4739 1.53467 22.2819 1.51067 23.1139 1.51067C23.9619 1.51067 24.7699 1.53467 25.5379 1.58267C26.3219 1.63067 27.0179 1.74267 27.6259 1.91867C28.2499 2.09467 28.7379 2.38267 29.0899 2.78267C29.4579 3.16667 29.6419 3.69467 29.6419 4.36667C29.6419 5.23067 29.3539 5.86267 28.7779 6.26267C28.2019 6.66267 27.4659 6.93467 26.5699 7.07867C26.6019 7.49467 26.6179 7.95867 26.6179 8.47067C26.6339 8.98267 26.6419 9.54267 26.6419 10.1507C26.6419 12.8387 26.1059 14.8707 25.0339 16.2467C23.9779 17.6227 22.3299 18.3107 20.0899 18.3107ZM33.9516 18.3347C32.7676 18.3507 31.7276 18.1107 30.8316 17.6147C29.9516 17.1027 29.2556 16.4147 28.7436 15.5507C28.2476 14.6707 27.9836 13.7027 27.9516 12.6467C27.9356 11.5587 28.1836 10.5987 28.6956 9.76667C29.2076 8.91867 29.9196 8.24667 30.8316 7.75067C31.7436 7.25467 32.7836 7.00667 33.9516 7.00667C35.1036 6.99067 36.1196 7.23067 36.9996 7.72667C37.8956 8.22267 38.6076 8.89467 39.1356 9.74267C39.6636 10.5907 39.9436 11.5587 39.9756 12.6467C39.9916 13.6867 39.7436 14.6387 39.2316 15.5027C38.7196 16.3507 38.0076 17.0307 37.0956 17.5427C36.1836 18.0387 35.1356 18.3027 33.9516 18.3347ZM34.0236 14.8307C34.4556 14.8307 34.8316 14.6627 35.1516 14.3267C35.4716 13.9907 35.6316 13.5987 35.6316 13.1507C35.6316 12.7027 35.4716 12.3187 35.1516 11.9987C34.8316 11.6627 34.4556 11.4947 34.0236 11.4947C33.5916 11.4947 33.2156 11.6627 32.8956 11.9987C32.5756 12.3187 32.4156 12.7027 32.4156 13.1507C32.4156 13.5987 32.5756 13.9907 32.8956 14.3267C33.2156 14.6627 33.5916 14.8307 34.0236 14.8307ZM43.0174 6.67067C42.2334 6.67067 41.5694 6.39067 41.0254 5.83067C40.4814 5.25467 40.2094 4.55867 40.2094 3.74267C40.2094 3.19867 40.3294 2.71067 40.5694 2.27867C40.8254 1.84667 41.1614 1.50267 41.5774 1.24667C42.0094 0.974668 42.4894 0.838668 43.0174 0.838668C43.5294 0.838668 43.9934 0.974668 44.4094 1.24667C44.8414 1.50267 45.1854 1.84667 45.4414 2.27867C45.6974 2.71067 45.8254 3.19867 45.8254 3.74267C45.8254 4.28667 45.6974 4.78267 45.4414 5.23067C45.1854 5.66267 44.8414 6.01467 44.4094 6.28667C43.9934 6.54267 43.5294 6.67067 43.0174 6.67067ZM43.0174 18.3107C42.3774 18.3107 41.8974 18.1267 41.5774 17.7587C41.2734 17.3907 41.0654 16.8307 40.9534 16.0787C40.8574 15.3107 40.8014 14.3267 40.7854 13.1267C40.7854 11.9267 40.8334 10.9427 40.9294 10.1747C41.0414 9.40667 41.2574 8.84667 41.5774 8.49467C41.8974 8.12667 42.3774 7.94267 43.0174 7.94267C43.6574 7.94267 44.1294 8.12667 44.4334 8.49467C44.7534 8.84667 44.9694 9.40667 45.0814 10.1747C45.1934 10.9427 45.2494 11.9267 45.2494 13.1267C45.2654 14.3267 45.2174 15.3107 45.1054 16.0787C44.9934 16.8307 44.7774 17.3907 44.4574 17.7587C44.1374 18.1267 43.6574 18.3107 43.0174 18.3107ZM56.2753 18.3107C55.6353 18.3107 55.1793 18.1347 54.9073 17.7827C54.6513 17.4147 54.4993 16.9587 54.4513 16.4147C54.4033 15.8547 54.3793 15.2947 54.3793 14.7347C54.3793 13.8867 54.2593 13.2067 54.0193 12.6947C53.7793 12.1667 53.3553 11.9027 52.7473 11.9027C52.2033 11.9027 51.8033 12.1667 51.5473 12.6947C51.2913 13.2067 51.1633 13.8867 51.1633 14.7347C51.1633 15.2947 51.1393 15.8467 51.0913 16.3907C51.0593 16.9347 50.9153 17.3907 50.6593 17.7587C50.4033 18.1107 49.9393 18.2867 49.2673 18.2867C48.7713 18.2867 48.3553 18.1027 48.0193 17.7347C47.6993 17.3667 47.4513 16.8867 47.2753 16.2947C47.0993 15.7027 46.9713 15.0627 46.8913 14.3747C46.8273 13.6867 46.7953 13.0227 46.7953 12.3827C46.7953 11.7427 46.8273 11.0867 46.8913 10.4147C46.9553 9.74267 47.0673 9.11867 47.2273 8.54267C47.4033 7.96667 47.6513 7.50267 47.9713 7.15067C48.2913 6.79867 48.7073 6.62267 49.2193 6.62267C50.1313 6.62267 50.6993 7.03867 50.9233 7.87067C51.1153 7.66267 51.4193 7.47067 51.8353 7.29467C52.2673 7.10267 52.7553 7.00667 53.2993 7.00667C54.5313 7.00667 55.5393 7.31867 56.3233 7.94267C57.1073 8.56667 57.6753 9.43067 58.0273 10.5347C58.3953 11.6227 58.5713 12.8867 58.5553 14.3267C58.5553 15.0627 58.4833 15.7347 58.3393 16.3427C58.2113 16.9347 57.9793 17.4147 57.6433 17.7827C57.3233 18.1347 56.8673 18.3107 56.2753 18.3107ZM64.5195 22.4147C63.6235 22.4147 62.8715 22.2387 62.2635 21.8867C61.6555 21.5507 61.3515 21.0867 61.3515 20.4947C61.3515 19.8867 61.6155 19.4147 62.1435 19.0787C62.6715 18.7427 63.3115 18.6387 64.0635 18.7667C64.9435 18.8947 65.7275 18.8387 66.4155 18.5987C67.1195 18.3747 67.5355 18.0307 67.6635 17.5667C67.4075 17.7107 67.0555 17.8307 66.6075 17.9267C66.1595 18.0227 65.6555 18.0707 65.0955 18.0707C64.0075 18.0707 63.0875 17.9107 62.3355 17.5907C61.5995 17.2547 61.0075 16.8307 60.5595 16.3187C60.1115 15.7907 59.7835 15.2387 59.5755 14.6627C59.3835 14.0707 59.2875 13.5267 59.2875 13.0307C59.2875 11.7187 59.5675 10.6147 60.1275 9.71867C60.7035 8.82267 61.4315 8.14267 62.3115 7.67867C63.1915 7.21467 64.0955 6.98267 65.0235 6.98267C65.3275 6.98267 65.6875 7.00667 66.1035 7.05467C66.5355 7.08667 66.9035 7.14267 67.2075 7.22267C67.3355 6.82267 67.5435 6.49467 67.8315 6.23867C68.1355 5.98267 68.6155 5.85467 69.2715 5.85467C69.8475 5.85467 70.3275 6.05467 70.7115 6.45467C71.0955 6.83867 71.3995 7.36667 71.6235 8.03867C71.8475 8.69467 72.0075 9.43067 72.1035 10.2467C72.1995 11.0467 72.2395 11.8787 72.2235 12.7427C72.2235 13.5907 72.1835 14.3907 72.1035 15.1427C71.9435 16.6307 71.5355 17.9187 70.8795 19.0067C70.2235 20.0947 69.3515 20.9347 68.2635 21.5267C67.1915 22.1187 65.9435 22.4147 64.5195 22.4147ZM65.4075 14.4707C65.9035 14.4707 66.3355 14.2867 66.7035 13.9187C67.0715 13.5507 67.2555 13.1267 67.2555 12.6467C67.2555 12.1507 67.0715 11.7187 66.7035 11.3507C66.3355 10.9827 65.9035 10.7987 65.4075 10.7987C64.9115 10.7987 64.4795 10.9827 64.1115 11.3507C63.7595 11.7187 63.5835 12.1507 63.5835 12.6467C63.5835 13.1267 63.7595 13.5507 64.1115 13.9187C64.4795 14.2867 64.9115 14.4707 65.4075 14.4707Z" fill="#2F9266"/>
</svg>
